<svg xmlns="http://www.w3.org/2000/svg" width="248" height="71" viewBox="0 0 248 71">
  <metadata><?xpacket begin="﻿" id="W5M0MpCehiHzreSzNTczkc9d"?>
<x:xmpmeta xmlns:x="adobe:ns:meta/" x:xmptk="Adobe XMP Core 5.6-c140 79.160451, 2017/05/06-01:08:21        ">
   <rdf:RDF xmlns:rdf="http://www.w3.org/1999/02/22-rdf-syntax-ns#">
      <rdf:Description rdf:about=""/>
   </rdf:RDF>
</x:xmpmeta>
                                                                                                    
                                                                                                    
                                                                                                    
                                                                                                    
                                                                                                    
                                                                                                    
                                                                                                    
                                                                                                    
                                                                                                    
                                                                                                    
                                                                                                    
                                                                                                    
                                                                                                    
                                                                                                    
                                                                                                    
                                                                                                    
                                                                                                    
                                                                                                    
                                                                                                    
                                                                                                    
                           
<?xpacket end="w"?></metadata>
<defs>
    <style>
      .cls-1 {
        fill: #fff;
        fill-rule: evenodd;
      }
    </style>
  </defs>
  <path id="Forma_3" data-name="Forma 3" class="cls-1" d="M196.857,32.22s20.818-3.006,31.227,3.608c5.679,3.608,9.563,7.252,12.358,13.882,5.15,12.215,11.133,16.9,18.192,19.55,0,0-14.476.015-24.807-14.03C223.538,41.24,220.547,33.423,196.857,32.22ZM154.383,40.8s29.237-11.375,55.2-3.848c20.739,6.013,16.99,30.065,46.981,34.394,0,0-21.616,6.173-35.016-14.672C213.43,44.05,203.079,36.229,154.383,40.8Zm13.241-6.414S188.761,23.642,210.058,21s31.347,0.4,37.329,4.971S259.033,40.478,263.9,43.925s8.136,4.009,9.572,3.287,13.24-7.857,23.53,4.329c0,0-6.3,1.042-9.173,4.249s-3.43,9.06-8.375,16.035-20.1,20.364-37.648,19.081c0,0,13.719-9.621,21.3-22.689,0,0-11.366-2.926-17.587-16.275C238.626,37.167,231.873,19.833,167.624,34.385ZM61.372,54.7a15.713,15.713,0,0,1,3.653.425,18.436,18.436,0,0,1,3.858,1.45v4a18.2,18.2,0,0,0-3.74-1.687,12.3,12.3,0,0,0-3.582-.52,9.071,9.071,0,0,0-4.218.97,7.09,7.09,0,0,0-2.924,2.734,7.992,7.992,0,0,0-.008,7.881,6.965,6.965,0,0,0,2.916,2.7,9.235,9.235,0,0,0,4.234.953A11.319,11.319,0,0,0,65,73.092a24.905,24.905,0,0,0,4.132-1.876v4a19.1,19.1,0,0,1-3.921,1.592,16.413,16.413,0,0,1-4.17.473A13.473,13.473,0,0,1,54.849,75.9a10.381,10.381,0,0,1-4.289-4A10.921,10.921,0,0,1,49,66.188a11.284,11.284,0,0,1,1.608-5.973,10.792,10.792,0,0,1,4.421-4.081A13.77,13.77,0,0,1,61.372,54.7Zm16.119,0.283V77H73.258V54.983h4.233Zm18.282,0v3.326H86.647V64h9.126v3.357H86.647V77H82.414V54.983H95.773Zm15.085-.283a13.11,13.11,0,0,1,6.123,1.41,10.834,10.834,0,0,1,4.335,4.066,11.254,11.254,0,0,1,.039,11.552,10.852,10.852,0,0,1-4.328,4.1,13.781,13.781,0,0,1-12.386-.023A10.907,10.907,0,0,1,98.752,66a11.113,11.113,0,0,1,1.553-5.689,10.8,10.8,0,0,1,4.28-4.137A12.987,12.987,0,0,1,110.858,54.7ZM103.127,66a7.88,7.88,0,0,0,.988,3.94,6.879,6.879,0,0,0,2.752,2.711,8.2,8.2,0,0,0,3.991.962,7.586,7.586,0,0,0,5.542-2.128A7.34,7.34,0,0,0,118.572,66a7.971,7.971,0,0,0-.98-3.948,6.8,6.8,0,0,0-2.759-2.719,8.8,8.8,0,0,0-8.013.008,6.721,6.721,0,0,0-2.736,2.711A8.061,8.061,0,0,0,103.127,66Zm32.945-11.017a12.873,12.873,0,0,1,6.083,1.4,10.15,10.15,0,0,1,4.14,3.94,11.157,11.157,0,0,1,1.474,5.705,11.021,11.021,0,0,1-1.482,5.729,9.976,9.976,0,0,1-4.211,3.869A13.741,13.741,0,0,1,135.82,77H126.9V54.983h9.173Zm-0.44,18.692a7.635,7.635,0,0,0,5.638-2.119A7.505,7.505,0,0,0,143.394,66a7.454,7.454,0,0,0-2.141-5.627,7.949,7.949,0,0,0-5.762-2.064h-4.359V73.674h4.5Zm20.416-18.692V77h-4.234V54.983h4.234Zm14.1,0a12.874,12.874,0,0,1,6.084,1.4,10.142,10.142,0,0,1,4.139,3.94,11.147,11.147,0,0,1,1.474,5.705,11.011,11.011,0,0,1-1.482,5.729,9.967,9.967,0,0,1-4.21,3.869A13.747,13.747,0,0,1,169.892,77H160.97V54.983h9.173ZM169.7,73.674a7.631,7.631,0,0,0,5.637-2.119A7.505,7.505,0,0,0,177.465,66a7.453,7.453,0,0,0-2.14-5.627,7.95,7.95,0,0,0-5.762-2.064H165.2V73.674h4.5Zm20.321-18.692V64.25h11.368V54.983h4.234V77h-4.234V67.7H190.025V77h-4.234V54.983h4.234Z" transform="translate(-49 -20)"/>
</svg>
